<svg width="600" height="600" xmlns="http://www.w3.org/2000/svg">
 <!-- Created with Method Draw - http://github.com/duopixel/Method-Draw/ -->

 <g>
  <title>background</title>
  <rect fill="#adadad" id="canvas_background" height="602" width="602" y="-1" x="-1"/>
 </g>
 <g>
  <title>Layer 1</title>
  <g stroke="null" id="svg_6">
   <path stroke="null" id="svg_4" d="m137.666733,137.666744l324.66652,0l0,324.66652l-324.66652,0l0,-324.66652z" fill="none"/>
   <path stroke="null" id="svg_5" d="m195.430318,178.250059l-17.18027,17.18027l121.749945,121.749945l0,3.787776c-7.981385,-4.599442 -17.18027,-7.440274 -27.055543,-7.440274c-29.896375,0 -54.111087,24.214711 -54.111087,54.111087s24.214711,54.111087 54.111087,54.111087s54.111087,-24.214711 54.111087,-54.111087l0,-23.403045l77.514132,77.514132l17.18027,-17.18027l-226.31962,-226.31962zm131.625219,54.111087l54.111087,0l0,-54.111087l-81.16663,0l0,70.073857l27.055543,27.055543l0,-43.018314z"/>
  </g>
 </g>
</svg>